<svg width="16" height="16" viewBox="0 0 16 16" fill="none" xmlns="http://www.w3.org/2000/svg">
<g clip-path="url(#clip0_963_10444)">
<path d="M13.4 5.72C13.84 4.42 14.42 3.84 15.72 3.4C16.1 3.27 16.1 2.73 15.72 2.6C14.42 2.16 13.84 1.58 13.4 0.279995C13.27 -0.100005 12.74 -0.100005 12.61 0.279995C12.17 1.58 11.59 2.16 10.29 2.6C9.91 2.73 9.91 3.27 10.29 3.4C11.59 3.84 12.17 4.42 12.61 5.72C12.74 6.1 13.27 6.1 13.4 5.72Z" fill="#0064D9"/>
<path d="M6.22 15.48C7.03 13.1 8.09 12.04 10.47 11.23C11.16 10.99 11.16 10 10.47 9.77C8.09 8.96 7.03 7.9 6.22 5.52C5.99 4.83 5 4.83 4.77 5.52C3.96 7.9 2.9 8.96 0.520002 9.77C-0.169998 10.01 -0.169998 11 0.520002 11.23C2.9 12.04 3.96 13.1 4.77 15.48C5 16.17 5.99 16.17 6.22 15.48Z" fill="#0064D9"/>
</g>
<defs>
<clipPath id="clip0_963_10444">
<rect width="16" height="16" fill="white"/>
</clipPath>
</defs>
</svg>
